<svg xmlns="http://www.w3.org/2000/svg" viewBox="0 0 22 22" fill="none" style="display:block;"><path d="M20.9839 8.88574C22.0992 9.99024 22.1078 11.7899 21.0034 12.9053L13.7993 20.1787C12.255 21.738 9.73959 21.7503 8.18018 20.2061L17.0034 10.8857L11.7095 9.25488L14.7681 2.73047L20.9839 8.88574ZM8.20361 1.82422C9.74796 0.264877 12.2643 0.252601 13.8237 1.79688L4.99951 11.1172L10.2944 12.748L7.23486 19.2725L1.02002 13.1172C-0.0953976 12.0126 -0.104152 10.213 1.00049 9.09766L8.20361 1.82422Z" fill="url(#paint0_linear_2801_5990)"></path><path d="M20.9834 8.88574C22.0988 9.99033 22.1076 11.7899 21.0029 12.9053L13.7998 20.1787C12.2555 21.7381 9.7391 21.7503 8.17969 20.2061L17.0029 10.8857L11.709 9.25488L14.7686 2.73047L20.9834 8.88574ZM8.2041 1.82422C9.74845 0.264877 12.2638 0.252601 13.8232 1.79688L5 11.1172L10.2939 12.748L7.23535 19.2725L1.01953 13.1172C-0.0958138 12.0127 -0.104425 10.213 1 9.09766L8.2041 1.82422Z" fill="url(#paint1_linear_2801_5990)"></path><defs><linearGradient id="paint0_linear_2801_5990" x1="3.1397" y1="18.5826" x2="26.3579" y2="4.96348" gradientUnits="userSpaceOnUse"><stop stop-color="#E40035" class="gradient-stop-1"></stop><stop offset="0.24" stop-color="#F60A48" class="gradient-stop-2"></stop><stop offset="0.352" stop-color="#F20755" class="gradient-stop-3"></stop><stop offset="0.494" stop-color="#DC087D" class="gradient-stop-4"></stop><stop offset="0.745" stop-color="#9717E7" class="gradient-stop-5"></stop><stop offset="1" stop-color="#6C00F5" class="gradient-stop-6"></stop></linearGradient><linearGradient id="paint1_linear_2801_5990" x1="4.69222" y1="2.73832" x2="14.704" y2="15.3673" gradientUnits="userSpaceOnUse"><stop stop-color="#FF31D9"></stop><stop offset="1" stop-color="#FF5BE1" stop-opacity="0"></stop></linearGradient></defs></svg>
